<?xml version="1.0" encoding="utf-8"?>
<!-- Generator: Adobe Illustrator 30.1.0, SVG Export Plug-In . SVG Version: 9.03 Build 0)  -->
<svg version="1.1" id="Layer_1" xmlns="http://www.w3.org/2000/svg" xmlns:xlink="http://www.w3.org/1999/xlink" x="0px" y="0px"
	 viewBox="0 0 1560.39 280.641" style="enable-background:new 0 0 1560.39 280.641;" xml:space="preserve">
<g>
	<polygon style="fill:#E84316;" points="165.882,111.335 57.704,111.335 57.704,6.955 0,6.955 0,273.421 57.704,273.421 
		57.704,169.04 165.882,169.04 165.882,273.424 223.586,273.424 223.586,6.954 165.882,6.954 	"/>
	<rect x="481.334" y="79.761" style="fill:#E84316;" width="57.704" height="193.663"/>
	<rect x="714.211" y="6.954" style="fill:#E84316;" width="57.704" height="266.469"/>
	<path style="fill:#E84316;" d="M1542.03,90.991c-4.46-4.459-9.6-8.289-15.266-11.226c-8.656-4.564-18.518-7.134-29.01-7.134
		c-23.344,0-43.383,16.052-52.249,36.143h-11.016c-0.696-2.905-1.564-5.778-2.745-8.525c-7.926-18.424-31.193-27.619-50.092-27.619
		c-12.821,0-24.68,4.231-34.226,11.376c-7.719,5.777-15.231,15.126-15.231,24.767h-11.016V79.765h-57.704v193.624h57.704l0-110.076
		c0-17.55,14.366-32.805,31.91-32.336c8.262,0.221,15.699,3.637,21.126,9.064c4.511,4.564,7.659,10.492,8.655,17.101
		c0.262,1.574,0.42,3.2,0.42,4.879v111.369h57.704V157.141c2.308-14.846,15.16-26.177,30.636-26.177
		c8.603,0,16.367,3.462,21.98,9.075c5.613,5.665,9.075,13.429,9.075,21.98v111.369h57.704V135.266
		C1560.39,118.007,1553.361,102.322,1542.03,90.991z"/>
	<path style="fill:#E84316;" d="M903.379,73.801c-57.023,0-103.413,46.39-103.413,103.413s46.39,103.416,103.413,103.416
		c57.023,0,103.416-46.393,103.416-103.416S960.402,73.801,903.379,73.801z M903.379,222.925c-25.205,0-45.709-20.507-45.709-45.712
		c0-25.205,20.504-45.709,45.709-45.709c25.205,0,45.711,20.504,45.711,45.709C949.09,202.418,928.584,222.925,903.379,222.925z"/>
	<path style="fill:#E84316;" d="M1131.231,73.801c-57.023,0-103.413,46.39-103.413,103.413s46.39,103.416,103.413,103.416
		c57.023,0,103.416-46.393,103.416-103.416S1188.254,73.801,1131.231,73.801z M1131.231,222.925
		c-25.204,0-45.709-20.507-45.709-45.712c0-25.205,20.504-45.709,45.709-45.709c25.205,0,45.712,20.504,45.712,45.709
		C1176.943,202.418,1156.436,222.925,1131.231,222.925z"/>
	<rect x="481.334" style="fill:#E84316;" width="57.704" height="57.704"/>
	<path style="fill:#E84316;" d="M357.989,73.933c-0.101-0.007-0.203-0.023-0.304-0.03c-1.469-0.053-2.938-0.105-4.407-0.105
		c-56.183,0-101.927,46.373-101.927,103.395c0,57.022,45.744,103.448,101.927,103.448c35.409,0,66.622-18.361,84.93-46.216
		l-46.793-27.908c-8.341,12.485-21.665,20.616-36.668,20.616c-19.724,0-36.511-14.059-42.858-33.678h76.773l60.902,0.274
		C457.162,133.539,419.059,76.726,357.989,73.933z M314.669,151.489c7.764-15.842,22.82-26.596,40.078-26.596
		c17.311,0,32.367,10.754,40.078,26.596H314.669z"/>
	<path style="fill:#E84316;" d="M689.414,79.778h-57.688c-29.879,0-54.101,24.222-54.101,54.101v139.523h57.704V129.561h54.085
		V79.778z"/>
</g>
<g>
</g>
<g>
</g>
<g>
</g>
<g>
</g>
<g>
</g>
<g>
</g>
</svg>
